<svg width="32" height="32" viewBox="0 0 32 32" fill="none" xmlns="http://www.w3.org/2000/svg">
<path d="M27.0525 2.76381C21.7423 3.0869 19.2079 7.61012 18.6045 9.83135C18.6045 13.7892 24.2365 15.721 27.0525 16.1921C29.5467 13.8497 28.0917 6.26392 27.0525 2.76381Z" fill="url(#paint0_linear_4_313)"/>
<path d="M27.0519 2.76382C25.6134 2.85135 24.3786 3.24708 23.3308 3.82177C23.2972 4.10857 23.3911 4.66196 24.0348 4.58119C23.0024 5.28795 21.6174 6.5803 24.3365 6.09566C23.5964 6.90338 23.3441 8.53901 28.255 8.61979C27.9943 6.4081 27.4867 4.22832 27.0519 2.76382Z" fill="url(#paint1_linear_4_313)"/>
<path d="M27.0528 16.1922C29.0822 14.2864 28.4972 8.90934 27.6489 5.0861C26.0087 5.36274 22.3863 7.49894 21.0186 13.8307C22.8928 15.1703 25.4366 15.9218 27.0528 16.1922Z" fill="url(#paint2_linear_4_313)"/>
<path d="M5.34057 1.79464C1.76812 6.53187 3.44394 16.1057 4.84837 16.9433C10.261 15.9196 13.8572 11.5107 13.879 9.73034C12.1111 2.16392 7.33005 1.25223 5.8282 1.47802C5.62788 1.50814 5.46269 1.63272 5.34057 1.79464Z" fill="url(#paint3_linear_4_313)"/>
<path d="M5.34041 1.79515C4.11828 3.41593 3.51042 5.60278 3.29582 7.81218C3.60528 9.12473 4.40522 11.0229 5.12933 8.11508C5.364 8.75452 5.97413 9.64975 6.53734 8.11508C8.04591 7.81218 10.8217 6.64098 9.8562 4.37938C10.3157 4.514 11.2878 4.70247 11.5008 4.37938C9.41928 1.70276 6.8578 1.32402 5.82945 1.47805C5.62911 1.50805 5.46251 1.63322 5.34041 1.79515Z" fill="url(#paint4_linear_4_313)"/>
<path d="M7.67532 4.66424C5.0836 7.69232 6.37822 16.6969 8.34796 16.6969C13.7606 15.6732 13.5777 10.74 13.5777 10.74C12.4458 5.81592 9.4561 4.35552 8.09342 4.44298C7.9293 4.45352 7.7824 4.53913 7.67532 4.66424Z" fill="url(#paint5_linear_4_313)"/>
<path d="M29.6686 21.6441C25.6458 2.1579 4.82744 7.10518 2.816 21.2403L-1.81532e-06 25.0769C7.24115 36.4859 33.9932 31.8416 31.8812 25.0769L29.6686 21.6441Z" fill="url(#paint6_linear_4_313)"/>
<path d="M31.8816 25.0771L29.669 21.6443C28.5695 16.3181 26.2151 12.8173 23.333 10.8307C25.612 12.8603 31.6804 21.9472 25.3444 30.8672C29.7268 29.6251 32.6335 27.4855 31.8816 25.0771Z" fill="url(#paint7_linear_4_313)"/>
<path d="M8.44927 27.8031C6.35738 27.7223 5.18048 28.8464 4.85352 29.4185C11.6062 33.0277 21.8794 32.4756 27.6584 30.0704C28.3608 29.7781 28.9967 29.4585 29.5519 29.1156C29.6989 27.904 27.7474 27.7357 26.7533 27.8031C26.8338 26.2684 23.8367 26.0193 22.2276 26.9953C20.3167 22.5529 14.6847 24.5722 14.2824 26.9953C7.24241 25.5818 7.44356 26.9617 8.44927 27.8031Z" fill="url(#paint8_linear_4_313)"/>
<path d="M27.6566 30.0703C28.3589 29.7781 28.9949 29.4584 29.5501 29.1155C29.6819 28.0289 28.1258 27.7815 27.0862 27.7906C26.8342 28.3667 26.0542 29.8102 24.9512 30.9748C25.9281 30.7149 26.8375 30.4113 27.6566 30.0703Z" fill="#F5C77B"/>
<path d="M14.9848 18.9181C14.2808 18.1104 11.6659 18.3123 10.9619 20.2306" stroke="#421608" stroke-width="0.301719" stroke-linecap="round"/>
<path d="M25.5463 20.1729C24.9429 18.6154 22.6297 18.0096 21.5234 19.9279" stroke="#421608" stroke-width="0.301719" stroke-linecap="round"/>
<ellipse cx="14.1805" cy="22.7548" rx="1.30743" ry="2.32219" fill="#421608"/>
<ellipse cx="14.4824" cy="23.4617" rx="0.402286" ry="0.605789" fill="white"/>
<ellipse cx="23.4334" cy="22.7549" rx="1.30743" ry="2.32219" fill="#421608"/>
<path d="M17.4998 27.6208C17.4332 27.6654 17.3659 27.6977 17.2987 27.7196C16.6953 30.0243 19.9135 30.5292 19.9135 27.7536C18.9112 28.4272 17.9136 27.9769 17.4998 27.6208Z" fill="#421608"/>
<path d="M16.293 27.4189C16.4664 27.5929 16.8789 27.8571 17.2987 27.7196M20.3158 27.4189C20.1826 27.5526 20.048 27.6632 19.9135 27.7536M17.2987 27.7196C17.3659 27.6977 17.4332 27.6654 17.4998 27.6208C17.9136 27.9769 18.9112 28.4272 19.9135 27.7536M17.2987 27.7196C16.6953 30.0243 19.9135 30.5292 19.9135 27.7536" stroke="#421608" stroke-width="0.150859" stroke-linecap="round"/>
<path d="M17.5 29.154C17.9737 29.779 18.9431 29.8428 19.4984 29.154C18.6835 28.2963 17.8266 28.7967 17.5 29.154Z" fill="#E64646"/>
<path d="M18.8401 26.99C18.5639 27.1294 18.2396 27.1453 17.9525 27.0303C17.3371 26.7837 17.0864 26.5792 16.8849 26.2533C16.7022 25.9578 16.8655 25.5693 17.1943 25.4572C18.077 25.1564 18.6172 25.1523 19.5392 25.4451C19.8959 25.5583 20.0586 25.9912 19.8201 26.2795C19.6046 26.54 19.3394 26.7382 18.8401 26.99Z" fill="#421608"/>
<ellipse cx="19.3105" cy="25.7834" rx="0.201143" ry="0.100572" fill="white"/>
<ellipse cx="23.7353" cy="23.4617" rx="0.402286" ry="0.605789" fill="white"/>
<defs>
<linearGradient id="paint0_linear_4_313" x1="23.9415" y1="-0.541598" x2="22.4334" y2="16.0939" gradientUnits="userSpaceOnUse">
<stop stop-color="#FF842A"/>
<stop offset="1" stop-color="#DD5310"/>
</linearGradient>
<linearGradient id="paint1_linear_4_313" x1="25.59" y1="2.76382" x2="25.59" y2="16.1921" gradientUnits="userSpaceOnUse">
<stop stop-color="#9C3B00"/>
<stop offset="1" stop-color="#420D01"/>
</linearGradient>
<linearGradient id="paint2_linear_4_313" x1="24.7312" y1="-4.97404" x2="18.9314" y2="16.2984" gradientUnits="userSpaceOnUse">
<stop stop-color="#FCE9C3"/>
<stop offset="1" stop-color="#FBDAA1"/>
</linearGradient>
<linearGradient id="paint3_linear_4_313" x1="5.49734" y1="-2.19933" x2="8.66062" y2="15.8574" gradientUnits="userSpaceOnUse">
<stop stop-color="#FF842A"/>
<stop offset="1" stop-color="#DD5310"/>
</linearGradient>
<linearGradient id="paint4_linear_4_313" x1="6.59474" y1="1.26103" x2="9.19869" y2="10.984" gradientUnits="userSpaceOnUse">
<stop stop-color="#9C3B00"/>
<stop offset="1" stop-color="#420D01"/>
</linearGradient>
<linearGradient id="paint5_linear_4_313" x1="5.23793" y1="-6.03313" x2="4.77645" y2="17.6118" gradientUnits="userSpaceOnUse">
<stop stop-color="#FCE9C3"/>
<stop offset="1" stop-color="#FBDAA1"/>
</linearGradient>
<linearGradient id="paint6_linear_4_313" x1="17.382" y1="3.0609" x2="15.989" y2="31.9994" gradientUnits="userSpaceOnUse">
<stop stop-color="#FF842A"/>
<stop offset="1" stop-color="#DD5310"/>
</linearGradient>
<linearGradient id="paint7_linear_4_313" x1="26.3351" y1="31.3712" x2="21.8066" y2="13.3864" gradientUnits="userSpaceOnUse">
<stop stop-color="#DC5207"/>
<stop offset="1" stop-color="#E96419"/>
</linearGradient>
<linearGradient id="paint8_linear_4_313" x1="17.2297" y1="17.4534" x2="16.3496" y2="33.1103" gradientUnits="userSpaceOnUse">
<stop stop-color="#FCE9C3"/>
<stop offset="1" stop-color="#FBDAA1"/>
</linearGradient>
</defs>
</svg>
